<svg xmlns="http://www.w3.org/2000/svg" xmlns:xlink="http://www.w3.org/1999/xlink" width="794" zoomAndPan="magnify" viewBox="0 0 594.95996 842.24997" height="1123" preserveAspectRatio="xMidYMid meet" version="1.0"><defs><g/><clipPath id="9f96b201e3"><path d="M 0.246094 0 L 594.675781 0 L 594.675781 841.5 L 0.246094 841.5 Z M 0.246094 0 " clip-rule="nonzero"/></clipPath><clipPath id="c8d63b780a"><path d="M 260.980469 313.726562 L 334.414062 313.726562 L 334.414062 358.6875 L 260.980469 358.6875 Z M 260.980469 313.726562 " clip-rule="nonzero"/></clipPath><clipPath id="837e091b92"><path d="M 140.261719 239.945312 L 559.886719 239.945312 L 559.886719 449.757812 L 140.261719 449.757812 Z M 140.261719 239.945312 " clip-rule="nonzero"/></clipPath></defs><g clip-path="url(#9f96b201e3)"><path fill="#ffffff" d="M 0.246094 0 L 595.214844 0 L 595.214844 841.5 L 0.246094 841.5 Z M 0.246094 0 " fill-opacity="1" fill-rule="nonzero"/><path fill="#ffffff" d="M 0.246094 0 L 595.214844 0 L 595.214844 841.5 L 0.246094 841.5 Z M 0.246094 0 " fill-opacity="1" fill-rule="nonzero"/></g><g fill="#000000" fill-opacity="1"><g transform="translate(334.932766, 351.539038)"><g><path d="M 26 4.078125 C 24.757812 4.703125 23.4375 5.015625 22.03125 5.015625 C 20.78125 5.015625 19.644531 4.820312 18.625 4.4375 C 16.414062 3.625 14.535156 2.035156 12.984375 -0.328125 C 12.585938 -0.910156 11.84375 -2.015625 10.75 -3.640625 C 9.664062 -5.273438 8.96875 -6.316406 8.65625 -6.765625 C 8.09375 -7.640625 7.644531 -8.117188 7.3125 -8.203125 L 7.3125 -8.4375 C 7.320312 -8.4375 7.335938 -8.4375 7.359375 -8.4375 C 7.390625 -8.4375 7.421875 -8.4375 7.453125 -8.4375 C 7.484375 -8.4375 7.515625 -8.4375 7.546875 -8.4375 C 7.578125 -8.4375 7.613281 -8.4375 7.65625 -8.4375 C 7.707031 -8.4375 7.753906 -8.4375 7.796875 -8.4375 C 8.609375 -8.4375 9.359375 -8.617188 10.046875 -8.984375 C 11.078125 -9.554688 11.59375 -10.617188 11.59375 -12.171875 C 11.59375 -13.304688 11.273438 -14.179688 10.640625 -14.796875 C 10.003906 -15.410156 9.238281 -15.71875 8.34375 -15.71875 L 6.515625 -15.71875 L 6.515625 -1.75 C 6.515625 -1.332031 6.664062 -0.972656 6.96875 -0.671875 C 7.28125 -0.378906 7.640625 -0.234375 8.046875 -0.234375 L 8.359375 -0.234375 L 8.359375 0 L 1.078125 0 L 1.078125 -0.234375 L 1.390625 -0.234375 C 1.785156 -0.234375 2.132812 -0.378906 2.4375 -0.671875 C 2.75 -0.960938 2.910156 -1.3125 2.921875 -1.71875 L 2.921875 -15.03125 C 2.910156 -15.445312 2.753906 -15.800781 2.453125 -16.09375 C 2.160156 -16.382812 1.804688 -16.53125 1.390625 -16.53125 L 1.078125 -16.53125 L 1.078125 -16.78125 L 9.296875 -16.78125 C 11.359375 -16.78125 12.957031 -16.304688 14.09375 -15.359375 C 14.988281 -14.628906 15.4375 -13.59375 15.4375 -12.25 C 15.4375 -10.90625 15 -9.8125 14.125 -8.96875 C 13.257812 -8.132812 12.265625 -7.71875 11.140625 -7.71875 C 11.046875 -7.71875 10.941406 -7.722656 10.828125 -7.734375 C 11.484375 -7.390625 12.03125 -7 12.46875 -6.5625 C 12.914062 -6.132812 13.300781 -5.726562 13.625 -5.34375 C 13.957031 -4.957031 14.238281 -4.617188 14.46875 -4.328125 C 14.695312 -4.035156 15.003906 -3.644531 15.390625 -3.15625 C 15.773438 -2.664062 16.171875 -2.15625 16.578125 -1.625 C 16.992188 -1.101562 17.453125 -0.566406 17.953125 -0.015625 C 18.460938 0.535156 19.023438 1.054688 19.640625 1.546875 C 20.253906 2.046875 20.882812 2.457031 21.53125 2.78125 C 22.882812 3.46875 24.375 3.816406 26 3.828125 Z M 26 4.078125 "/></g></g></g><g fill="#000000" fill-opacity="1"><g transform="translate(352.452568, 351.539038)"><g><path d="M 1.3125 -0.234375 C 1.726562 -0.234375 2.082031 -0.378906 2.375 -0.671875 C 2.675781 -0.972656 2.835938 -1.332031 2.859375 -1.75 L 2.859375 -15.09375 C 2.804688 -15.65625 2.539062 -16.070312 2.0625 -16.34375 C 1.820312 -16.46875 1.570312 -16.53125 1.3125 -16.53125 L 1 -16.53125 L 1 -16.78125 L 10.1875 -16.78125 C 10.6875 -16.78125 11.226562 -16.828125 11.8125 -16.921875 C 12.40625 -17.015625 12.820312 -17.109375 13.0625 -17.203125 L 13.0625 -13.015625 L 12.828125 -13.015625 L 12.828125 -13.296875 C 12.828125 -14.015625 12.613281 -14.59375 12.1875 -15.03125 C 11.757812 -15.476562 11.1875 -15.71875 10.46875 -15.75 L 6.453125 -15.75 L 6.453125 -8.765625 L 9.609375 -8.765625 C 10.203125 -8.785156 10.691406 -8.988281 11.078125 -9.375 C 11.460938 -9.769531 11.65625 -10.253906 11.65625 -10.828125 L 11.65625 -11.046875 L 11.890625 -11.046875 L 11.890625 -5.515625 L 11.65625 -5.515625 L 11.65625 -5.703125 C 11.65625 -6.503906 11.332031 -7.097656 10.6875 -7.484375 C 10.363281 -7.648438 10.015625 -7.742188 9.640625 -7.765625 L 6.453125 -7.765625 L 6.453125 -1.03125 L 9.59375 -1.03125 C 10.757812 -1.03125 11.734375 -1.363281 12.515625 -2.03125 C 13.304688 -2.707031 13.894531 -3.660156 14.28125 -4.890625 L 14.53125 -4.890625 L 13.421875 0 L 1 0 L 1 -0.234375 Z M 1.3125 -0.234375 "/></g></g></g><g fill="#000000" fill-opacity="1"><g transform="translate(367.575686, 351.539038)"><g><path d="M 10.984375 0.3125 C 7.898438 0.3125 5.476562 -0.460938 3.71875 -2.015625 C 1.957031 -3.566406 1.078125 -5.691406 1.078125 -8.390625 C 1.078125 -11.085938 1.945312 -13.210938 3.6875 -14.765625 C 5.425781 -16.328125 7.816406 -17.109375 10.859375 -17.109375 C 13.171875 -17.109375 15.160156 -16.675781 16.828125 -15.8125 L 16.875 -11.703125 L 16.6875 -11.703125 C 15.863281 -14.640625 14 -16.109375 11.09375 -16.109375 C 9.207031 -16.109375 7.71875 -15.425781 6.625 -14.0625 C 5.53125 -12.695312 4.984375 -10.828125 4.984375 -8.453125 C 4.984375 -6.085938 5.503906 -4.210938 6.546875 -2.828125 C 7.597656 -1.441406 9.019531 -0.722656 10.8125 -0.671875 C 12.664062 -0.671875 14.078125 -1.132812 15.046875 -2.0625 C 16.035156 -3.019531 16.722656 -4.664062 17.109375 -7 L 17.3125 -7 L 17.546875 -2.875 C 16.253906 -0.738281 14.066406 0.320312 10.984375 0.3125 Z M 10.984375 0.3125 "/></g></g></g><g fill="#000000" fill-opacity="1"><g transform="translate(386.269876, 351.539038)"><g><path d="M 10.546875 -17.109375 C 13.503906 -17.109375 15.851562 -16.328125 17.59375 -14.765625 C 19.332031 -13.203125 20.203125 -11.078125 20.203125 -8.390625 C 20.203125 -5.703125 19.332031 -3.578125 17.59375 -2.015625 C 15.851562 -0.453125 13.503906 0.328125 10.546875 0.328125 C 7.585938 0.328125 5.238281 -0.453125 3.5 -2.015625 C 1.757812 -3.578125 0.890625 -5.703125 0.890625 -8.390625 C 0.890625 -10.160156 1.285156 -11.703125 2.078125 -13.015625 C 2.867188 -14.335938 3.988281 -15.347656 5.4375 -16.046875 C 6.894531 -16.753906 8.597656 -17.109375 10.546875 -17.109375 Z M 6.359375 -2.734375 C 7.390625 -1.359375 8.785156 -0.671875 10.546875 -0.671875 C 12.304688 -0.671875 13.703125 -1.359375 14.734375 -2.734375 C 15.765625 -4.117188 16.28125 -6.003906 16.28125 -8.390625 C 16.28125 -9.953125 16.046875 -11.316406 15.578125 -12.484375 C 15.117188 -13.648438 14.457031 -14.546875 13.59375 -15.171875 C 12.726562 -15.796875 11.710938 -16.109375 10.546875 -16.109375 C 8.785156 -16.109375 7.390625 -15.414062 6.359375 -14.03125 C 5.328125 -12.644531 4.8125 -10.757812 4.8125 -8.375 C 4.8125 -6 5.328125 -4.117188 6.359375 -2.734375 Z M 6.359375 -2.734375 "/></g></g></g><g fill="#000000" fill-opacity="1"><g transform="translate(407.336785, 351.539038)"><g><path d="M 18.9375 -16.53125 L 18.53125 -16.53125 C 18.195312 -16.53125 17.90625 -16.421875 17.65625 -16.203125 C 17.40625 -15.992188 17.28125 -15.726562 17.28125 -15.40625 L 17.28125 -6.0625 C 17.28125 -4.09375 16.664062 -2.535156 15.4375 -1.390625 C 14.207031 -0.242188 12.519531 0.328125 10.375 0.328125 C 7.851562 0.328125 5.921875 -0.234375 4.578125 -1.359375 C 3.234375 -2.484375 2.5625 -4.046875 2.5625 -6.046875 L 2.5625 -15.34375 C 2.5625 -15.695312 2.4375 -15.984375 2.1875 -16.203125 C 1.945312 -16.421875 1.648438 -16.53125 1.296875 -16.53125 L 0.90625 -16.53125 L 0.90625 -16.78125 L 7.8125 -16.78125 L 7.8125 -16.53125 L 7.4375 -16.53125 C 7.082031 -16.53125 6.785156 -16.421875 6.546875 -16.203125 C 6.304688 -15.992188 6.175781 -15.722656 6.15625 -15.390625 L 6.15625 -6.234375 C 6.15625 -4.535156 6.570312 -3.191406 7.40625 -2.203125 C 8.238281 -1.210938 9.378906 -0.71875 10.828125 -0.71875 C 12.285156 -0.71875 13.4375 -1.179688 14.28125 -2.109375 C 15.132812 -3.046875 15.566406 -4.316406 15.578125 -5.921875 L 15.578125 -15.390625 C 15.578125 -15.722656 15.453125 -15.992188 15.203125 -16.203125 C 14.960938 -16.421875 14.664062 -16.53125 14.3125 -16.53125 L 13.921875 -16.53125 L 13.921875 -16.78125 L 18.9375 -16.78125 Z M 18.9375 -16.53125 "/></g></g></g><g fill="#000000" fill-opacity="1"><g transform="translate(427.013617, 351.539038)"><g><path d="M 18.15625 -16.53125 L 17.9375 -16.53125 C 17.570312 -16.53125 17.203125 -16.421875 16.828125 -16.203125 C 16.460938 -15.984375 16.160156 -15.648438 15.921875 -15.203125 L 10.234375 -2.65625 C 9.503906 -1.070312 9.113281 -0.0234375 9.0625 0.484375 L 8.859375 0.484375 L 1.59375 -15.171875 C 1.351562 -15.617188 1.046875 -15.957031 0.671875 -16.1875 C 0.304688 -16.414062 -0.0664062 -16.53125 -0.453125 -16.53125 L -0.640625 -16.53125 L -0.640625 -16.78125 L 6.984375 -16.78125 L 6.984375 -16.53125 L 6.796875 -16.53125 C 6.441406 -16.53125 6.179688 -16.421875 6.015625 -16.203125 C 5.847656 -15.992188 5.765625 -15.789062 5.765625 -15.59375 C 5.765625 -15.40625 5.796875 -15.21875 5.859375 -15.03125 L 9.9375 -5.125 L 14.15625 -15.03125 C 14.226562 -15.238281 14.265625 -15.429688 14.265625 -15.609375 C 14.265625 -15.796875 14.179688 -15.992188 14.015625 -16.203125 C 13.847656 -16.421875 13.585938 -16.53125 13.234375 -16.53125 L 13.015625 -16.53125 L 13.015625 -16.78125 L 18.15625 -16.78125 Z M 18.15625 -16.53125 "/></g></g></g><g fill="#000000" fill-opacity="1"><g transform="translate(444.437557, 351.539038)"><g><path d="M 7.625 -15.71875 L 6.59375 -15.71875 C 6.5625 -15.71875 6.535156 -15.71875 6.515625 -15.71875 L 6.515625 -1.75 C 6.535156 -1.15625 6.789062 -0.71875 7.28125 -0.4375 C 7.519531 -0.300781 7.773438 -0.234375 8.046875 -0.234375 L 8.359375 -0.234375 L 8.359375 0 L 1.078125 0 L 1.078125 -0.234375 L 1.390625 -0.234375 C 1.960938 -0.234375 2.398438 -0.484375 2.703125 -0.984375 C 2.835938 -1.203125 2.910156 -1.445312 2.921875 -1.71875 L 2.921875 -15.03125 C 2.910156 -15.445312 2.753906 -15.800781 2.453125 -16.09375 C 2.160156 -16.382812 1.804688 -16.53125 1.390625 -16.53125 L 1.078125 -16.53125 L 1.078125 -16.78125 L 9.296875 -16.78125 C 10.847656 -16.78125 12.160156 -16.441406 13.234375 -15.765625 C 13.773438 -15.429688 14.203125 -14.960938 14.515625 -14.359375 C 14.835938 -13.765625 15 -13.085938 15 -12.328125 C 15 -11.566406 14.867188 -10.867188 14.609375 -10.234375 C 14.347656 -9.597656 13.910156 -9.039062 13.296875 -8.5625 C 12.679688 -8.082031 11.941406 -7.789062 11.078125 -7.6875 C 12.003906 -7.382812 12.816406 -6.679688 13.515625 -5.578125 C 15.242188 -2.816406 16.523438 -1.171875 17.359375 -0.640625 C 17.765625 -0.390625 18.28125 -0.253906 18.90625 -0.234375 L 18.90625 0 L 16.5625 0 C 15.207031 0 14.070312 -0.1875 13.15625 -0.5625 C 12.25 -0.9375 11.507812 -1.582031 10.9375 -2.5 C 10.644531 -2.957031 10.273438 -3.648438 9.828125 -4.578125 C 9.378906 -5.515625 9.082031 -6.1875 8.9375 -6.59375 C 8.507812 -7.550781 7.96875 -8.085938 7.3125 -8.203125 L 7.3125 -8.4375 L 8.046875 -8.4375 C 8.765625 -8.4375 9.398438 -8.648438 9.953125 -9.078125 C 10.503906 -9.515625 10.878906 -10.21875 11.078125 -11.1875 C 11.140625 -11.53125 11.171875 -11.796875 11.171875 -11.984375 C 11.171875 -13.296875 10.90625 -14.242188 10.375 -14.828125 C 9.851562 -15.410156 9.175781 -15.707031 8.34375 -15.71875 C 8.175781 -15.71875 7.9375 -15.71875 7.625 -15.71875 Z M 7.625 -15.71875 "/></g></g></g><g fill="#000000" fill-opacity="1"><g transform="translate(462.316864, 351.539038)"><g><path d="M 1.3125 -0.234375 C 1.726562 -0.234375 2.082031 -0.378906 2.375 -0.671875 C 2.675781 -0.972656 2.835938 -1.332031 2.859375 -1.75 L 2.859375 -15.09375 C 2.804688 -15.65625 2.539062 -16.070312 2.0625 -16.34375 C 1.820312 -16.46875 1.570312 -16.53125 1.3125 -16.53125 L 1 -16.53125 L 1 -16.78125 L 10.1875 -16.78125 C 10.6875 -16.78125 11.226562 -16.828125 11.8125 -16.921875 C 12.40625 -17.015625 12.820312 -17.109375 13.0625 -17.203125 L 13.0625 -13.015625 L 12.828125 -13.015625 L 12.828125 -13.296875 C 12.828125 -14.015625 12.613281 -14.59375 12.1875 -15.03125 C 11.757812 -15.476562 11.1875 -15.71875 10.46875 -15.75 L 6.453125 -15.75 L 6.453125 -8.765625 L 9.609375 -8.765625 C 10.203125 -8.785156 10.691406 -8.988281 11.078125 -9.375 C 11.460938 -9.769531 11.65625 -10.253906 11.65625 -10.828125 L 11.65625 -11.046875 L 11.890625 -11.046875 L 11.890625 -5.515625 L 11.65625 -5.515625 L 11.65625 -5.703125 C 11.65625 -6.503906 11.332031 -7.097656 10.6875 -7.484375 C 10.363281 -7.648438 10.015625 -7.742188 9.640625 -7.765625 L 6.453125 -7.765625 L 6.453125 -1.03125 L 9.59375 -1.03125 C 10.757812 -1.03125 11.734375 -1.363281 12.515625 -2.03125 C 13.304688 -2.707031 13.894531 -3.660156 14.28125 -4.890625 L 14.53125 -4.890625 L 13.421875 0 L 1 0 L 1 -0.234375 Z M 1.3125 -0.234375 "/></g></g></g><g fill="#000000" fill-opacity="1"><g transform="translate(477.439981, 351.539038)"><g><path d="M 22.703125 -0.234375 L 23.078125 -0.234375 L 23.078125 0 L 15.890625 0 L 15.890625 -0.21875 L 16.25 -0.21875 C 16.519531 -0.21875 16.75 -0.320312 16.9375 -0.53125 C 17.132812 -0.75 17.21875 -0.988281 17.1875 -1.25 L 16.25 -9.953125 L 11.75 -2.1875 C 11.15625 -1.1875 10.847656 -0.296875 10.828125 0.484375 L 10.59375 0.484375 L 4.4375 -9.875 L 3.5 -1.25 C 3.46875 -0.988281 3.546875 -0.75 3.734375 -0.53125 C 3.929688 -0.320312 4.164062 -0.21875 4.4375 -0.21875 L 4.796875 -0.21875 L 4.796875 0 L -0.21875 0 L -0.21875 -0.234375 L 0.171875 -0.234375 C 0.617188 -0.234375 1.003906 -0.367188 1.328125 -0.640625 C 1.660156 -0.910156 1.859375 -1.28125 1.921875 -1.75 L 3.90625 -17.109375 L 4.125 -17.109375 L 11.546875 -4.890625 L 18.703125 -17.109375 L 18.90625 -17.109375 L 20.953125 -1.75 C 21.023438 -1.28125 21.222656 -0.910156 21.546875 -0.640625 C 21.878906 -0.367188 22.265625 -0.234375 22.703125 -0.234375 Z M 22.703125 -0.234375 "/></g></g></g><g fill="#000000" fill-opacity="1"><g transform="translate(500.280439, 351.539038)"><g><path d="M 1.3125 -0.234375 C 1.726562 -0.234375 2.082031 -0.378906 2.375 -0.671875 C 2.675781 -0.972656 2.835938 -1.332031 2.859375 -1.75 L 2.859375 -15.09375 C 2.804688 -15.65625 2.539062 -16.070312 2.0625 -16.34375 C 1.820312 -16.46875 1.570312 -16.53125 1.3125 -16.53125 L 1 -16.53125 L 1 -16.78125 L 10.1875 -16.78125 C 10.6875 -16.78125 11.226562 -16.828125 11.8125 -16.921875 C 12.40625 -17.015625 12.820312 -17.109375 13.0625 -17.203125 L 13.0625 -13.015625 L 12.828125 -13.015625 L 12.828125 -13.296875 C 12.828125 -14.015625 12.613281 -14.59375 12.1875 -15.03125 C 11.757812 -15.476562 11.1875 -15.71875 10.46875 -15.75 L 6.453125 -15.75 L 6.453125 -8.765625 L 9.609375 -8.765625 C 10.203125 -8.785156 10.691406 -8.988281 11.078125 -9.375 C 11.460938 -9.769531 11.65625 -10.253906 11.65625 -10.828125 L 11.65625 -11.046875 L 11.890625 -11.046875 L 11.890625 -5.515625 L 11.65625 -5.515625 L 11.65625 -5.703125 C 11.65625 -6.503906 11.332031 -7.097656 10.6875 -7.484375 C 10.363281 -7.648438 10.015625 -7.742188 9.640625 -7.765625 L 6.453125 -7.765625 L 6.453125 -1.03125 L 9.59375 -1.03125 C 10.757812 -1.03125 11.734375 -1.363281 12.515625 -2.03125 C 13.304688 -2.707031 13.894531 -3.660156 14.28125 -4.890625 L 14.53125 -4.890625 L 13.421875 0 L 1 0 L 1 -0.234375 Z M 1.3125 -0.234375 "/></g></g></g><g fill="#000000" fill-opacity="1"><g transform="translate(515.403556, 351.539038)"><g><path d="M 19.578125 -16.53125 C 19.179688 -16.53125 18.835938 -16.390625 18.546875 -16.109375 C 18.265625 -15.835938 18.113281 -15.5 18.09375 -15.09375 L 18.09375 -2.734375 C 18.09375 -1.660156 18.164062 -0.757812 18.3125 -0.03125 L 18.390625 0.328125 L 18.171875 0.328125 L 6.0625 -11.1875 L 6.0625 -1.671875 C 6.0625 -1.273438 6.203125 -0.9375 6.484375 -0.65625 C 6.773438 -0.375 7.125 -0.234375 7.53125 -0.234375 L 7.984375 -0.234375 L 7.984375 0 L 0.71875 0 L 0.71875 -0.234375 L 1.15625 -0.234375 C 1.570312 -0.234375 1.921875 -0.375 2.203125 -0.65625 C 2.492188 -0.9375 2.640625 -1.285156 2.640625 -1.703125 L 2.640625 -14.140625 C 2.640625 -15.191406 2.566406 -16.070312 2.421875 -16.78125 L 2.375 -17.140625 L 2.59375 -17.140625 L 14.6875 -5.609375 L 14.6875 -15.078125 C 14.675781 -15.492188 14.523438 -15.835938 14.234375 -16.109375 C 13.953125 -16.390625 13.609375 -16.53125 13.203125 -16.53125 L 12.78125 -16.53125 L 12.78125 -16.78125 L 20.03125 -16.78125 L 20.03125 -16.53125 Z M 19.578125 -16.53125 "/></g></g></g><g fill="#000000" fill-opacity="1"><g transform="translate(536.134926, 351.539038)"><g><path d="M 9.796875 -15.796875 L 9.796875 -1.71875 C 9.816406 -1.3125 9.972656 -0.960938 10.265625 -0.671875 C 10.566406 -0.378906 10.925781 -0.234375 11.34375 -0.234375 L 11.625 -0.234375 L 11.65625 0 L 4.359375 0 L 4.359375 -0.234375 L 4.671875 -0.234375 C 5.066406 -0.234375 5.410156 -0.378906 5.703125 -0.671875 C 6.003906 -0.960938 6.171875 -1.304688 6.203125 -1.703125 L 6.203125 -15.796875 L 2.96875 -15.796875 C 2.238281 -15.773438 1.65625 -15.539062 1.21875 -15.09375 C 0.789062 -14.644531 0.578125 -14.0625 0.578125 -13.34375 L 0.578125 -13.0625 L 0.328125 -13.0625 L 0.328125 -17.234375 C 0.554688 -17.140625 0.960938 -17.039062 1.546875 -16.9375 C 2.128906 -16.84375 2.664062 -16.796875 3.15625 -16.796875 L 12.828125 -16.796875 C 13.609375 -16.816406 14.242188 -16.878906 14.734375 -16.984375 C 15.234375 -17.097656 15.539062 -17.179688 15.65625 -17.234375 L 15.65625 -13.0625 L 15.40625 -13.0625 L 15.40625 -13.34375 C 15.40625 -14.0625 15.191406 -14.644531 14.765625 -15.09375 C 14.335938 -15.539062 13.753906 -15.773438 13.015625 -15.796875 Z M 9.796875 -15.796875 "/></g></g></g><g fill="#000000" fill-opacity="1"><g transform="translate(552.098748, 351.539038)"><g/></g></g><g fill="#000000" fill-opacity="1"><g transform="translate(145.667131, 351.539038)"><g><path d="M 19.359375 -9.375 C 19.410156 -8.894531 19.4375 -8.289062 19.4375 -7.5625 C 19.4375 -6.832031 19.289062 -5.941406 19 -4.890625 C 18.71875 -3.847656 18.203125 -2.929688 17.453125 -2.140625 C 15.910156 -0.492188 13.800781 0.328125 11.125 0.328125 C 7.863281 0.328125 5.289062 -0.472656 3.40625 -2.078125 C 1.519531 -3.679688 0.578125 -5.78125 0.578125 -8.375 C 0.578125 -10.96875 1.53125 -13.070312 3.4375 -14.6875 C 5.34375 -16.300781 7.863281 -17.109375 11 -17.109375 C 12.195312 -17.109375 13.335938 -16.988281 14.421875 -16.75 C 15.515625 -16.507812 16.421875 -16.195312 17.140625 -15.8125 L 17.1875 -11.703125 L 17 -11.703125 C 16.726562 -12.722656 16.269531 -13.578125 15.625 -14.265625 C 14.476562 -15.492188 12.925781 -16.109375 10.96875 -16.109375 C 9.019531 -16.109375 7.453125 -15.410156 6.265625 -14.015625 C 5.078125 -12.628906 4.484375 -10.789062 4.484375 -8.5 C 4.484375 -6.207031 5.101562 -4.34375 6.34375 -2.90625 C 7.582031 -1.46875 9.285156 -0.722656 11.453125 -0.671875 C 13.804688 -0.671875 15.675781 -1.421875 17.0625 -2.921875 C 18.457031 -4.421875 19.15625 -6.457031 19.15625 -9.03125 C 19.15625 -9.144531 19.15625 -9.257812 19.15625 -9.375 Z M 19.359375 -9.375 "/></g></g></g><g fill="#000000" fill-opacity="1"><g transform="translate(165.46379, 351.539038)"><g><path d="M 17.703125 -0.234375 L 17.90625 -0.234375 L 17.90625 0 L 10.265625 0 L 10.265625 -0.234375 L 10.484375 -0.234375 C 10.835938 -0.234375 11.097656 -0.34375 11.265625 -0.5625 C 11.429688 -0.78125 11.515625 -0.984375 11.515625 -1.171875 C 11.515625 -1.367188 11.472656 -1.5625 11.390625 -1.75 L 10.21875 -4.703125 L 4.609375 -4.703125 L 3.359375 -1.75 C 3.285156 -1.539062 3.25 -1.34375 3.25 -1.15625 C 3.25 -0.976562 3.332031 -0.78125 3.5 -0.5625 C 3.664062 -0.34375 3.929688 -0.234375 4.296875 -0.234375 L 4.484375 -0.234375 L 4.484375 0 L -0.640625 0 L -0.640625 -0.234375 L -0.421875 -0.234375 C -0.0546875 -0.234375 0.304688 -0.34375 0.671875 -0.5625 C 1.046875 -0.789062 1.351562 -1.128906 1.59375 -1.578125 L 7.125 -14.125 C 7.875 -15.695312 8.273438 -16.738281 8.328125 -17.25 L 8.546875 -17.25 L 15.65625 -1.625 C 15.894531 -1.164062 16.195312 -0.816406 16.5625 -0.578125 C 16.9375 -0.347656 17.316406 -0.234375 17.703125 -0.234375 Z M 5.015625 -5.703125 L 9.8125 -5.703125 L 7.484375 -11.59375 Z M 5.015625 -5.703125 "/></g></g></g><g fill="#000000" fill-opacity="1"><g transform="translate(182.624098, 351.539038)"><g><path d="M 8.609375 0 L 1 0 L 1 -0.234375 L 1.3125 -0.234375 C 1.726562 -0.234375 2.082031 -0.378906 2.375 -0.671875 C 2.675781 -0.960938 2.835938 -1.3125 2.859375 -1.71875 L 2.859375 -15.046875 C 2.835938 -15.460938 2.675781 -15.8125 2.375 -16.09375 C 2.082031 -16.382812 1.726562 -16.53125 1.3125 -16.53125 L 1 -16.53125 L 1 -16.78125 L 7.953125 -16.78125 C 9.804688 -16.78125 11.28125 -16.441406 12.375 -15.765625 C 13.46875 -15.097656 14.023438 -14.066406 14.046875 -12.671875 C 14.023438 -11.972656 13.875 -11.359375 13.59375 -10.828125 C 13.0625 -9.835938 12.226562 -9.269531 11.09375 -9.125 C 12.320312 -9.019531 13.335938 -8.5625 14.140625 -7.75 C 14.941406 -6.945312 15.34375 -5.921875 15.34375 -4.671875 C 15.34375 -3.171875 14.738281 -2.015625 13.53125 -1.203125 C 12.320312 -0.398438 10.679688 0 8.609375 0 Z M 10.203125 -12.375 C 10.191406 -14.625 9.171875 -15.75 7.140625 -15.75 L 6.453125 -15.75 L 6.453125 -1.109375 L 7.546875 -1.109375 C 7.566406 -1.109375 7.582031 -1.109375 7.59375 -1.109375 C 8.695312 -1.109375 9.578125 -1.425781 10.234375 -2.0625 C 10.890625 -2.695312 11.21875 -3.664062 11.21875 -4.96875 C 11.21875 -5.875 11.035156 -6.625 10.671875 -7.21875 C 9.984375 -8.320312 8.847656 -8.875 7.265625 -8.875 L 7.265625 -9.078125 C 8.097656 -9.078125 8.789062 -9.34375 9.34375 -9.875 C 9.90625 -10.414062 10.191406 -11.25 10.203125 -12.375 Z M 10.203125 -12.375 "/></g></g></g><g fill="#000000" fill-opacity="1"><g transform="translate(198.753823, 351.539038)"><g><path d="M 1.3125 -0.234375 C 1.726562 -0.234375 2.082031 -0.378906 2.375 -0.671875 C 2.675781 -0.972656 2.835938 -1.332031 2.859375 -1.75 L 2.859375 -15.046875 C 2.835938 -15.460938 2.675781 -15.8125 2.375 -16.09375 C 2.082031 -16.382812 1.726562 -16.53125 1.3125 -16.53125 L 1 -16.53125 L 1 -16.78125 L 8.296875 -16.78125 L 8.265625 -16.53125 L 7.984375 -16.53125 C 7.566406 -16.53125 7.207031 -16.382812 6.90625 -16.09375 C 6.601562 -15.8125 6.453125 -15.460938 6.453125 -15.046875 L 6.453125 -1.75 C 6.453125 -1.332031 6.601562 -0.972656 6.90625 -0.671875 C 7.207031 -0.378906 7.566406 -0.234375 7.984375 -0.234375 L 8.265625 -0.234375 L 8.296875 0 L 1 0 L 1 -0.234375 Z M 1.3125 -0.234375 "/></g></g></g><g fill="#000000" fill-opacity="1"><g transform="translate(208.005044, 351.539038)"><g><path d="M 19.578125 -16.53125 C 19.179688 -16.53125 18.835938 -16.390625 18.546875 -16.109375 C 18.265625 -15.835938 18.113281 -15.5 18.09375 -15.09375 L 18.09375 -2.734375 C 18.09375 -1.660156 18.164062 -0.757812 18.3125 -0.03125 L 18.390625 0.328125 L 18.171875 0.328125 L 6.0625 -11.1875 L 6.0625 -1.671875 C 6.0625 -1.273438 6.203125 -0.9375 6.484375 -0.65625 C 6.773438 -0.375 7.125 -0.234375 7.53125 -0.234375 L 7.984375 -0.234375 L 7.984375 0 L 0.71875 0 L 0.71875 -0.234375 L 1.15625 -0.234375 C 1.570312 -0.234375 1.921875 -0.375 2.203125 -0.65625 C 2.492188 -0.9375 2.640625 -1.285156 2.640625 -1.703125 L 2.640625 -14.140625 C 2.640625 -15.191406 2.566406 -16.070312 2.421875 -16.78125 L 2.375 -17.140625 L 2.59375 -17.140625 L 14.6875 -5.609375 L 14.6875 -15.078125 C 14.675781 -15.492188 14.523438 -15.835938 14.234375 -16.109375 C 13.953125 -16.390625 13.609375 -16.53125 13.203125 -16.53125 L 12.78125 -16.53125 L 12.78125 -16.78125 L 20.03125 -16.78125 L 20.03125 -16.53125 Z M 19.578125 -16.53125 "/></g></g></g><g fill="#000000" fill-opacity="1"><g transform="translate(228.736414, 351.539038)"><g><path d="M 1.3125 -0.234375 C 1.726562 -0.234375 2.082031 -0.378906 2.375 -0.671875 C 2.675781 -0.972656 2.835938 -1.332031 2.859375 -1.75 L 2.859375 -15.09375 C 2.804688 -15.65625 2.539062 -16.070312 2.0625 -16.34375 C 1.820312 -16.46875 1.570312 -16.53125 1.3125 -16.53125 L 1 -16.53125 L 1 -16.78125 L 10.1875 -16.78125 C 10.6875 -16.78125 11.226562 -16.828125 11.8125 -16.921875 C 12.40625 -17.015625 12.820312 -17.109375 13.0625 -17.203125 L 13.0625 -13.015625 L 12.828125 -13.015625 L 12.828125 -13.296875 C 12.828125 -14.015625 12.613281 -14.59375 12.1875 -15.03125 C 11.757812 -15.476562 11.1875 -15.71875 10.46875 -15.75 L 6.453125 -15.75 L 6.453125 -8.765625 L 9.609375 -8.765625 C 10.203125 -8.785156 10.691406 -8.988281 11.078125 -9.375 C 11.460938 -9.769531 11.65625 -10.253906 11.65625 -10.828125 L 11.65625 -11.046875 L 11.890625 -11.046875 L 11.890625 -5.515625 L 11.65625 -5.515625 L 11.65625 -5.703125 C 11.65625 -6.503906 11.332031 -7.097656 10.6875 -7.484375 C 10.363281 -7.648438 10.015625 -7.742188 9.640625 -7.765625 L 6.453125 -7.765625 L 6.453125 -1.03125 L 9.59375 -1.03125 C 10.757812 -1.03125 11.734375 -1.363281 12.515625 -2.03125 C 13.304688 -2.707031 13.894531 -3.660156 14.28125 -4.890625 L 14.53125 -4.890625 L 13.421875 0 L 1 0 L 1 -0.234375 Z M 1.3125 -0.234375 "/></g></g></g><g fill="#000000" fill-opacity="1"><g transform="translate(243.859532, 351.539038)"><g><path d="M 9.796875 -15.796875 L 9.796875 -1.71875 C 9.816406 -1.3125 9.972656 -0.960938 10.265625 -0.671875 C 10.566406 -0.378906 10.925781 -0.234375 11.34375 -0.234375 L 11.625 -0.234375 L 11.65625 0 L 4.359375 0 L 4.359375 -0.234375 L 4.671875 -0.234375 C 5.066406 -0.234375 5.410156 -0.378906 5.703125 -0.671875 C 6.003906 -0.960938 6.171875 -1.304688 6.203125 -1.703125 L 6.203125 -15.796875 L 2.96875 -15.796875 C 2.238281 -15.773438 1.65625 -15.539062 1.21875 -15.09375 C 0.789062 -14.644531 0.578125 -14.0625 0.578125 -13.34375 L 0.578125 -13.0625 L 0.328125 -13.0625 L 0.328125 -17.234375 C 0.554688 -17.140625 0.960938 -17.039062 1.546875 -16.9375 C 2.128906 -16.84375 2.664062 -16.796875 3.15625 -16.796875 L 12.828125 -16.796875 C 13.609375 -16.816406 14.242188 -16.878906 14.734375 -16.984375 C 15.234375 -17.097656 15.539062 -17.179688 15.65625 -17.234375 L 15.65625 -13.0625 L 15.40625 -13.0625 L 15.40625 -13.34375 C 15.40625 -14.0625 15.191406 -14.644531 14.765625 -15.09375 C 14.335938 -15.539062 13.753906 -15.773438 13.015625 -15.796875 Z M 9.796875 -15.796875 "/></g></g></g><g clip-path="url(#c8d63b780a)"><path fill="#000000" d="M 327.796875 320.351562 C 323.542969 316.109375 317.875 313.773438 311.84375 313.773438 L 300.417969 313.773438 L 282.492188 333.441406 L 260.980469 313.847656 L 260.980469 358.636719 L 263.902344 358.636719 L 263.902344 320.441406 L 268.789062 324.886719 L 268.789062 358.621094 L 271.714844 358.621094 L 271.714844 327.554688 L 282.6875 337.546875 L 299.46875 319.121094 L 299.933594 318.613281 L 301.699219 316.664062 L 311.832031 316.664062 C 322.667969 316.664062 331.488281 325.429688 331.488281 336.199219 C 331.488281 346.96875 322.667969 355.730469 311.832031 355.730469 L 302.378906 355.730469 L 302.378906 321.023438 L 299.453125 324.230469 L 299.453125 355.730469 L 294.117188 355.730469 L 294.117188 330.085938 L 291.191406 333.292969 L 291.191406 358.621094 L 311.832031 358.621094 C 317.859375 358.621094 323.527344 356.285156 327.796875 352.046875 C 332.0625 347.808594 334.414062 342.175781 334.414062 336.183594 C 334.414062 330.191406 332.0625 324.574219 327.796875 320.351562 Z M 327.796875 320.351562 " fill-opacity="1" fill-rule="nonzero"/></g><g clip-path="url(#837e091b92)"><path fill="#000000" d="M 140.261719 239.945312 L 559.652344 239.945312 L 559.652344 280.632812 L 554.425781 280.632812 L 554.425781 245.1875 L 145.488281 245.1875 L 145.488281 280.632812 L 140.261719 280.632812 Z M 559.652344 408.953125 L 559.652344 449.640625 L 140.261719 449.640625 L 140.261719 408.953125 L 145.488281 408.953125 L 145.488281 444.398438 L 554.425781 444.398438 L 554.425781 408.953125 Z M 559.652344 408.953125 " fill-opacity="1" fill-rule="evenodd"/></g></svg>